<svg xmlns="http://www.w3.org/2000/svg" width="21.945" height="21.514" viewBox="0 0 21.945 21.514">
  <g id="Action" transform="translate(0 -5.033)">
    <path id="Tracé_2650" data-name="Tracé 2650" d="M13.421,393.511a3.717,3.717,0,0,1-.31-.353L10.069,396.2l1.836,1.836,3.042-3.042a3.726,3.726,0,0,1-.353-.31Z" transform="translate(-9.637 -371.489)" fill="#9ca2cf"/>
    <path id="Tracé_2651" data-name="Tracé 2651" d="M389.956,393.159a3.717,3.717,0,0,1-.31.353l-1.173,1.173a3.721,3.721,0,0,1-.353.31l3.042,3.042L393,396.2Z" transform="translate(-371.484 -371.49)" fill="#9ca2cf"/>
    <path id="Tracé_2652" data-name="Tracé 2652" d="M277.531,288.141l.128.128a2.416,2.416,0,0,0,3.417,0l2.088-2.088a2.416,2.416,0,0,0,0-3.417l-.128-.127-1.38,1.376-1.554-1.554-2.753,2.753,1.554,1.554Z" transform="translate(-265.461 -265.535)" fill="#9ca2cf"/>
    <path id="Tracé_2653" data-name="Tracé 2653" d="M10.055,12.341,6.189,8.475A12.853,12.853,0,0,0,.218,5.094L0,5.04l.054.218a12.854,12.854,0,0,0,3.381,5.971L7.3,15.095Z" transform="translate(0 -0.007)" fill="#9ca2cf"/>
    <path id="Tracé_2654" data-name="Tracé 2654" d="M97.45,11.222a12.854,12.854,0,0,0,3.381-5.971l.054-.218-.218.054A12.854,12.854,0,0,0,94.7,8.468L84.687,18.478,83.31,17.1l-.127.127a2.416,2.416,0,0,0,0,3.417l2.091,2.091a2.416,2.416,0,0,0,3.417,0l.127-.127-1.377-1.377Z" transform="translate(-78.94)" fill="#9ca2cf"/>
  </g>
</svg>
