<svg xmlns="http://www.w3.org/2000/svg" width="20.106" height="28.741" viewBox="0 0 20.106 28.741">
  <g id="Big_kids" data-name="Big kids" transform="translate(-64.593)">
    <path id="Tracé_12141" data-name="Tracé 12141" d="M106.262,7.338a3.669,3.669,0,1,0-3.669-3.669A3.669,3.669,0,0,0,106.262,7.338Z" transform="translate(-35.46 0)" fill="#9ca2cf"/>
    <path id="Tracé_12142" data-name="Tracé 12142" d="M71.9,117.277a3.107,3.107,0,0,0-2.2,0c-.961.292-4.583,1.846-5.107,8.8a1.164,1.164,0,0,0,1.073,1.248q.045,0,.089,0a1.164,1.164,0,0,0,1.16-1.077,12.83,12.83,0,0,1,.779-3.738V126.1a3.112,3.112,0,0,0,.082.71v9.822a1.358,1.358,0,1,0,2.716,0v-7.443q.151.015.306.015t.306-.015v7.443a1.358,1.358,0,1,0,2.716,0v-9.823a3.113,3.113,0,0,0,.082-.709v-3.584a12.83,12.83,0,0,1,.779,3.739,1.164,1.164,0,0,0,1.16,1.077q.044,0,.088,0a1.164,1.164,0,0,0,1.074-1.248C76.484,119.121,72.859,117.568,71.9,117.277Z" transform="translate(0 -109.252)" fill="#9ca2cf"/>
    <path id="Tracé_12143" data-name="Tracé 12143" d="M276.719,193.481a2.258,2.258,0,1,0-2.258-2.258A2.258,2.258,0,0,0,276.719,193.481Z" transform="translate(-195.841 -176.335)" fill="#9ca2cf"/>
    <path id="Tracé_12144" data-name="Tracé 12144" d="M258.715,266.549c-.322-4.279-2.549-5.237-3.141-5.417a1.91,1.91,0,0,0-1.354,0c-.592.179-2.82,1.136-3.142,5.418a.716.716,0,0,0,.66.768l.055,0a.716.716,0,0,0,.714-.663,7.887,7.887,0,0,1,.48-2.3v1.6a1.908,1.908,0,0,0,.051.436v4.823a.836.836,0,0,0,1.672,0v-3.358a1.883,1.883,0,0,0,.376,0v3.358a.836.836,0,0,0,1.672,0v-4.822a1.908,1.908,0,0,0,.051-.437v-1.589a7.857,7.857,0,0,1,.48,2.294.717.717,0,0,0,.714.663l.054,0A.717.717,0,0,0,258.715,266.549Z" transform="translate(-174.018 -243.563)" fill="#9ca2cf"/>
  </g>
</svg>
