<svg xmlns="http://www.w3.org/2000/svg" width="21.554" height="28.741" viewBox="0 0 21.554 28.741">
  <g id="Board" transform="translate(-64.011 0)">
    <g id="Groupe_18460" data-name="Groupe 18460" transform="translate(65.805 0)">
      <g id="Groupe_18459" data-name="Groupe 18459" transform="translate(0 0)">
        <path id="Tracé_12145" data-name="Tracé 12145" d="M115.243,9.121c-2.394-1.881-4.753-3.76-7.139-5.64A3.092,3.092,0,0,1,106.777.366c.036-.325-.146-.435-.5-.325a3.029,3.029,0,0,0-1.9,1.484,2.435,2.435,0,0,1-2.47,1.448A3.855,3.855,0,0,0,98.441,5a12.03,12.03,0,0,0-1.75,4.349,24.988,24.988,0,0,0-.641,4.924c-.074,1.27-.036,2.5-.074,3.765v3.515h15.809v-2.54a2.412,2.412,0,0,0-.663-1.852c-.79-.783-1.629-1.516-1.629-1.516a6.909,6.909,0,0,1-1.09-1.119l-2.915-3.772.539.435a3.283,3.283,0,0,0,2.966.686,2.394,2.394,0,0,1,1.859.287,10.8,10.8,0,0,0,1.024.578,2,2,0,0,0,2.454-.485c.368-.442.736-.884,1.1-1.318A1.26,1.26,0,0,0,115.243,9.121Z" transform="translate(-95.976 0)" fill="#9ca2cf"/>
      </g>
    </g>
    <g id="Groupe_18462" data-name="Groupe 18462" transform="translate(64.011 23.352)">
      <g id="Groupe_18461" data-name="Groupe 18461" transform="translate(0)">
        <path id="Tracé_12146" data-name="Tracé 12146" d="M83.675,420.087l-1.8-3.594a.9.9,0,0,0-.8-.5H66.705a.9.9,0,0,0-.8.5l-1.8,3.593a.9.9,0,0,0,.8,1.3H82.872a.9.9,0,0,0,.765-.426A.894.894,0,0,0,83.675,420.087Z" transform="translate(-64.011 -415.997)" fill="#9ca2cf"/>
      </g>
    </g>
  </g>
</svg>
