<svg xmlns="http://www.w3.org/2000/svg" width="29.7" height="29.7" viewBox="0 0 29.7 29.7">
  <g id="Cards" transform="translate(0 0)">
    <path id="Tracé_12139" data-name="Tracé 12139" d="M251.842,2.01,240.643.035a2.316,2.316,0,0,0-2.683,1.879l-.106.6a4.06,4.06,0,0,1,3.419,2.974l.684,2.554a2.087,2.087,0,0,1,2.82,1.289,2.088,2.088,0,0,1,3.713,1.632c-.435,2.467-3.083,4.45-4.339,5.266l1.918,7.16a4.039,4.039,0,0,1,.136,1.148l1.614.285a2.316,2.316,0,0,0,2.683-1.879l3.218-18.252a2.316,2.316,0,0,0-1.879-2.683Z" transform="translate(-224.057 0)" fill="#9ca2cf"/>
    <path id="Tracé_12140" data-name="Tracé 12140" d="M15.538,74.5A2.314,2.314,0,0,0,12.7,72.859L1.717,75.8A2.316,2.316,0,0,0,.079,78.639l4.8,17.9a2.314,2.314,0,0,0,2.836,1.638L18.7,95.235A2.316,2.316,0,0,0,20.335,92.4ZM6.99,86.734a.615.615,0,0,1-.176-.659L8.493,81.1a.615.615,0,0,1,.989-.265L13.424,84.3a.615.615,0,0,1,.176.659l-1.68,4.973a.615.615,0,0,1-.989.265Z" transform="translate(0 -68.558)" fill="#9ca2cf"/>
  </g>
</svg>
