<svg xmlns="http://www.w3.org/2000/svg" width="27.601" height="21.786" viewBox="0 0 27.601 21.786">
  <g id="Educational" transform="translate(0 -44.587)">
    <g id="Groupe_18458" data-name="Groupe 18458" transform="translate(0 44.587)">
      <g id="Groupe_18457" data-name="Groupe 18457" transform="translate(0 0)">
        <path id="Tracé_12129" data-name="Tracé 12129" d="M1.391,114.1V100.693c-.473.125-.946.278-1.391.417v16.93a17.932,17.932,0,0,1,11.31.584,13.077,13.077,0,0,0-9.279-3.881A.654.654,0,0,1,1.391,114.1Z" transform="translate(0 -97.034)" fill="#9ca2cf"/>
        <path id="Tracé_12130" data-name="Tracé 12130" d="M40.789,44.587l-.042,16.5a14.663,14.663,0,0,1,10.531,5.286V50.639A13.911,13.911,0,0,0,40.789,44.587Z" transform="translate(-38.09 -44.587)" fill="#9ca2cf"/>
        <path id="Tracé_12131" data-name="Tracé 12131" d="M260.131,101.12v13.4a.654.654,0,0,1-.64.64,12.994,12.994,0,0,0-9.251,3.881v.014a17.9,17.9,0,0,1,11.282-.612v-16.9A13.548,13.548,0,0,0,260.131,101.12Z" transform="translate(-233.922 -97.433)" fill="#9ca2cf"/>
        <path id="Tracé_12132" data-name="Tracé 12132" d="M231.957,44.587a13.759,13.759,0,0,0-10.517,6.052V66.373a14.663,14.663,0,0,1,10.517-5.286Z" transform="translate(-207 -44.587)" fill="#9ca2cf"/>
      </g>
    </g>
  </g>
</svg>
