<svg xmlns="http://www.w3.org/2000/svg" width="27.373" height="26" viewBox="0 0 27.373 26">
  <g id="Kids" transform="translate(0 -11.466)">
    <circle id="Ellipse_1313" data-name="Ellipse 1313" cx="2.838" cy="2.838" r="2.838" transform="translate(17.132 12.088)" fill="#9ca2cf"/>
    <path id="Tracé_12127" data-name="Tracé 12127" d="M27.2,123.082l-4.368-7.5a1.247,1.247,0,0,0-.954-.613H18.162a1.247,1.247,0,0,0-.954.613l-3.291,5.649-3.653-6.27a1.248,1.248,0,0,0-1.083-.62H5.621a1.248,1.248,0,0,0-1.083.62L.17,122.46a1.25,1.25,0,1,0,2.159,1.258l1.927-3.307v1.416l-.862,6.213a.871.871,0,0,0,.862.99h0v3.8a1.339,1.339,0,0,0,1.271,1.349,1.319,1.319,0,0,0,1.367-1.318V129.03H7.935v3.8a1.339,1.339,0,0,0,1.271,1.349,1.319,1.319,0,0,0,1.367-1.318V129.03h0a.871.871,0,0,0,.862-.99l-.862-6.213v-1.37l1.9,3.261a4.008,4.008,0,0,0,.819,1.073A1.249,1.249,0,0,0,15,124.34l1.872-3.214-.018,11.061a1.319,1.319,0,0,0,1.319,1.319h.018a1.319,1.319,0,0,0,1.319-1.319l-.018-6.674a.533.533,0,0,1,.486-.538.521.521,0,0,1,.556.52v6.66a1.339,1.339,0,0,0,1.271,1.35,1.319,1.319,0,0,0,1.367-1.318V121.126l1.872,3.214a1.25,1.25,0,0,0,2.16-1.258Z" transform="translate(0 -96.717)" fill="#9ca2cf"/>
    <path id="Tracé_12128" data-name="Tracé 12128" d="M37.193,17.086l.7-.063a.682.682,0,0,0,.61-.811,2.238,2.238,0,0,1,.343-1.974c0,.022,0,.044,0,.066a2.838,2.838,0,1,0,5.676,0c0-.022,0-.044,0-.066a2.238,2.238,0,0,1,.342,1.974.682.682,0,0,0,.61.811l.7.063a.683.683,0,0,0,.74-.608c.1-.9.08-2.25-.429-2.787A2.434,2.434,0,0,0,44.205,13a2.837,2.837,0,0,0-5.042,0,2.434,2.434,0,0,0-2.281.69c-.509.536-.526,1.887-.429,2.787A.683.683,0,0,0,37.193,17.086Z" transform="translate(-34.228)" fill="#9ca2cf"/>
  </g>
</svg>
