<svg xmlns="http://www.w3.org/2000/svg" width="27.498" height="27.444" viewBox="0 0 27.498 27.444">
  <g id="Multiplayer" transform="translate(0 -0.501)">
    <path id="Tracé_12148" data-name="Tracé 12148" d="M169.689,11.728h7.843a.772.772,0,0,0,.771-.774v-.844a4.113,4.113,0,0,0-4.151-4.123,2.759,2.759,0,1,0-1.083,0,4.113,4.113,0,0,0-4.151,4.123v.844A.772.772,0,0,0,169.689,11.728Z" transform="translate(-159.846)" fill="#9ca2cf"/>
    <path id="Tracé_12149" data-name="Tracé 12149" d="M52.875,112.742a.8.8,0,0,0,.936-.65,10.749,10.749,0,0,1,3.063-5.737.806.806,0,0,0-1.117-1.164,12.368,12.368,0,0,0-3.529,6.611.808.808,0,0,0,.648.94Z" transform="translate(-49.41 -98.854)" fill="#9ca2cf"/>
    <path id="Tracé_12150" data-name="Tracé 12150" d="M371.216,108.934a10.609,10.609,0,0,1,1.115,3.157.8.8,0,1,0,1.583-.289,12.367,12.367,0,0,0-3.529-6.611.8.8,0,0,0-1.138.021.81.81,0,0,0,.021,1.143,10.594,10.594,0,0,1,1.948,2.58Z" transform="translate(-349.203 -98.853)" fill="#9ca2cf"/>
    <path id="Tracé_12151" data-name="Tracé 12151" d="M184.147,363.964a10.465,10.465,0,0,1-3.251.522h-.044a10.523,10.523,0,0,1-3.188-.488.808.808,0,0,0-.485,1.541,12.114,12.114,0,0,0,3.673.563h.044a12.1,12.1,0,0,0,3.753-.6.808.808,0,0,0-.5-1.535Z" transform="translate(-167.132 -343.905)" fill="#9ca2cf"/>
    <path id="Tracé_12152" data-name="Tracé 12152" d="M5.234,307.929a2.759,2.759,0,1,0-1.083,0A4.114,4.114,0,0,0,0,312.052v.844a.773.773,0,0,0,.771.774H8.614a.773.773,0,0,0,.771-.774v-.844a4.113,4.113,0,0,0-4.151-4.123Z" transform="translate(0 -285.725)" fill="#9ca2cf"/>
    <path id="Tracé_12153" data-name="Tracé 12153" d="M342.491,307.929a2.759,2.759,0,1,0-1.083,0,4.113,4.113,0,0,0-4.151,4.123v.844a.773.773,0,0,0,.771.774h7.843a.773.773,0,0,0,.771-.774v-.844A4.113,4.113,0,0,0,342.491,307.929Z" transform="translate(-319.144 -285.725)" fill="#9ca2cf"/>
  </g>
</svg>
