<svg xmlns="http://www.w3.org/2000/svg" width="25.224" height="25.2" viewBox="0 0 25.224 25.2">
  <g id="puzzle" transform="translate(0 -0.231)">
    <g id="Groupe_18463" data-name="Groupe 18463" transform="translate(0 0.231)">
      <path id="Tracé_12147" data-name="Tracé 12147" d="M24.571,11.263,21.6,8.3c-1.22-1.22-.474-2.508.855-2.586A2.511,2.511,0,0,0,24.091,1.3a2.5,2.5,0,0,0-4.405,1.627C19.6,4.252,18.3,5,17.09,3.788l-2.9-2.9a2.231,2.231,0,0,0-3.154,0l-2.94,2.94c-1.22,1.22-2.513.464-2.6-.865A2.521,2.521,0,0,0,1.07,1.311,2.522,2.522,0,0,0,2.712,5.743c1.329.083,2.085,1.381.871,2.6L.653,11.269a2.231,2.231,0,0,0,0,3.154l2.9,2.9c1.22,1.215.5,2.481-.834,2.565A2.506,2.506,0,0,0,1.1,24.3c1.945,1.788,4.264.568,4.4-1.621.083-1.329,1.355-2.059,2.575-.845L11,24.765a2.289,2.289,0,0,0,3.222.005l2.054-2.054.881-.881a1.413,1.413,0,0,0-.907-2.554,2.52,2.52,0,0,1-1.642-4.426A2.521,2.521,0,0,1,19.035,16.5a1.408,1.408,0,0,0,2.549.9l.8-.8,2.148-2.148.01-.01.031-.031A2.231,2.231,0,0,0,24.571,11.263Z" transform="translate(0 -0.231)" fill="#9ca2cf"/>
    </g>
  </g>
</svg>
