<svg id="Sport_icon" data-name="Sport icon" xmlns="http://www.w3.org/2000/svg" width="20.9" height="20.9" viewBox="0 0 20.9 20.9">
  <g id="Groupe_582" data-name="Groupe 582" transform="translate(3.544)">
    <g id="Groupe_581" data-name="Groupe 581">
      <path id="Tracé_2656" data-name="Tracé 2656" d="M94.43.033C94.207.019,93.986,0,93.761,0a10.467,10.467,0,0,0-6.947,2.678L93.72,9.584l2.639-2.639A7.323,7.323,0,0,1,94.43.033Z" transform="translate(-86.814)" fill="#9ca2cf"/>
    </g>
  </g>
  <g id="Groupe_584" data-name="Groupe 584" transform="translate(0 3.544)">
    <g id="Groupe_583" data-name="Groupe 583">
      <path id="Tracé_2657" data-name="Tracé 2657" d="M2.678,86.814A10.467,10.467,0,0,0,0,93.761c0,.225.019.447.033.669a7.324,7.324,0,0,1,6.913,1.929L9.584,93.72Z" transform="translate(0 -86.814)" fill="#9ca2cf"/>
    </g>
  </g>
  <g id="Groupe_586" data-name="Groupe 586" transform="translate(12.171 0.177)">
    <g id="Groupe_585" data-name="Groupe 585">
      <path id="Tracé_2658" data-name="Tracé 2658" d="M298.36,4.327a6.106,6.106,0,0,0,1.575,5.9l3.442-3.442A10.3,10.3,0,0,0,298.36,4.327Z" transform="translate(-298.152 -4.327)" fill="#9ca2cf"/>
    </g>
  </g>
  <g id="Groupe_588" data-name="Groupe 588" transform="translate(14.911 3.503)">
    <g id="Groupe_587" data-name="Groupe 587">
      <path id="Tracé_2659" data-name="Tracé 2659" d="M368.635,85.814l-3.352,3.352a6.139,6.139,0,0,0,5.562.6A10.321,10.321,0,0,0,368.635,85.814Z" transform="translate(-365.283 -85.814)" fill="#9ca2cf"/>
    </g>
  </g>
  <g id="Groupe_590" data-name="Groupe 590" transform="translate(3.503 14.912)">
    <g id="Groupe_589" data-name="Groupe 589">
      <path id="Tracé_2660" data-name="Tracé 2660" d="M89.164,365.3l-3.351,3.351a10.32,10.32,0,0,0,3.961,2.213,6.071,6.071,0,0,0-.61-5.564Z" transform="translate(-85.813 -365.305)" fill="#9ca2cf"/>
    </g>
  </g>
  <g id="Groupe_592" data-name="Groupe 592" transform="translate(7.731 11.316)">
    <g id="Groupe_591" data-name="Groupe 591">
      <path id="Tracé_2661" data-name="Tracé 2661" d="M192.12,277.211,189.4,279.93a7.281,7.281,0,0,1,.938,6.711,10.259,10.259,0,0,0,8.687-2.523Z" transform="translate(-189.401 -277.211)" fill="#9ca2cf"/>
    </g>
  </g>
  <g id="Groupe_594" data-name="Groupe 594" transform="translate(11.316 7.723)">
    <g id="Groupe_593" data-name="Groupe 593">
      <path id="Tracé_2662" data-name="Tracé 2662" d="M286.64,190.146a7.261,7.261,0,0,1-6.7-.941l-2.727,2.727,6.906,6.906a10.261,10.261,0,0,0,2.523-8.692Z" transform="translate(-277.211 -189.205)" fill="#9ca2cf"/>
    </g>
  </g>
  <g id="Groupe_596" data-name="Groupe 596" transform="translate(0.177 12.171)">
    <g id="Groupe_595" data-name="Groupe 595">
      <path id="Tracé_2663" data-name="Tracé 2663" d="M4.327,298.363a10.3,10.3,0,0,0,2.46,5.018l3.442-3.442A6.106,6.106,0,0,0,4.327,298.363Z" transform="translate(-4.327 -298.155)" fill="#9ca2cf"/>
    </g>
  </g>
</svg>
