<svg xmlns="http://www.w3.org/2000/svg" width="23.129" height="20.99" viewBox="0 0 23.129 20.99">
  <g id="strategy_1_" data-name="strategy (1)" transform="translate(0.001 -13.735)">
    <path id="Tracé_12123" data-name="Tracé 12123" d="M1.259,19.873l1.918-1.918,1.918,1.918a.738.738,0,0,0,1.043-1.043L4.22,16.912l1.918-1.918a.738.738,0,1,0-1.043-1.043L3.176,15.868,1.259,13.951A.738.738,0,0,0,.215,14.994l1.918,1.918L.215,18.829a.738.738,0,0,0,1.043,1.043Z" transform="translate(0 0)" fill="#9ca2cf"/>
    <path id="Tracé_12124" data-name="Tracé 12124" d="M131.428,201.888a.738.738,0,0,0-1.043,0l-1.918,1.918-1.918-1.918a.738.738,0,0,0-1.043,1.043l1.918,1.918-1.918,1.918a.738.738,0,0,0,1.043,1.043l1.918-1.918,1.918,1.918a.738.738,0,0,0,1.043-1.043l-1.918-1.918,1.918-1.918A.738.738,0,0,0,131.428,201.888Z" transform="translate(-115.534 -173.301)" fill="#9ca2cf"/>
    <path id="Tracé_12125" data-name="Tracé 12125" d="M44.122,38.827l-2.975-2.586a.738.738,0,0,0-.968,1.114l1.578,1.372a12.886,12.886,0,0,0-8.948,5.1,14.106,14.106,0,0,0-2.26,4.595,3.362,3.362,0,0,1,1.5.136,12.821,12.821,0,0,1,1.981-3.9,11.319,11.319,0,0,1,7.938-4.476l-1.47,1.691a.738.738,0,1,0,1.114.968l2.586-2.975A.738.738,0,0,0,44.122,38.827Z" transform="translate(-28.17 -20.587)" fill="#9ca2cf"/>
    <path id="Tracé_12126" data-name="Tracé 12126" d="M10.507,210a2.18,2.18,0,1,0,2.18,2.18A2.183,2.183,0,0,0,10.507,210Z" transform="translate(-7.679 -180.979)" fill="#9ca2cf"/>
    <path id="Tracé_12127" data-name="Tracé 12127" d="M243.189,48.91a2.18,2.18,0,1,0,2.18,2.18A2.183,2.183,0,0,0,243.189,48.91Z" transform="translate(-222.241 -32.436)" fill="#9ca2cf"/>
  </g>
</svg>
