<svg xmlns="http://www.w3.org/2000/svg" width="18.705" height="29" viewBox="0 0 18.705 29">
  <g id="Tower_Defense" data-name="Tower Defense" transform="translate(-90.88)">
    <path id="Tracé_12133" data-name="Tracé 12133" d="M237.106,265.2a1.136,1.136,0,0,0-1.134,1.134v2.926h2.269V266.33A1.136,1.136,0,0,0,237.106,265.2Z" transform="translate(-136.874 -250.175)" fill="#9ca2cf"/>
    <path id="Tracé_12134" data-name="Tracé 12134" d="M96.609,120.072l1.134,2.269h15.787l1.134-2.269Z" transform="translate(-5.405 -113.271)" fill="#9ca2cf"/>
    <path id="Tracé_12135" data-name="Tracé 12135" d="M109.585,5.1V0h-1.7V1.7h-1.7V0h-1.7V1.7h-1.7V0h-1.7V1.7h-1.7V0h-1.7V1.7h-1.7V0h-1.7V1.7h-1.7V0h-1.7V5.1Z" fill="#9ca2cf"/>
    <path id="Tracé_12136" data-name="Tracé 12136" d="M120.9,190.128v18.231h15.3V190.128Zm4.818,5.386a2.834,2.834,0,1,1,5.667,0v4.625h-5.667Z" transform="translate(-28.323 -179.359)" fill="#9ca2cf"/>
  </g>
</svg>
